<svg id="Layer_1" data-name="Layer 1" xmlns="http://www.w3.org/2000/svg" width="1296.83" height="129.15" viewBox="0 0 1296.83 129.15">
  <defs>
    <style>
      .cls-1 {
        fill: #a0a0a0;
      }
    </style>
  </defs>
  <title>logo</title>
  <path class="cls-1" d="M53.63,87.88a64.72,64.72,0,0,1-2.47,18.74A37.81,37.81,0,0,1,44,120.28a29.82,29.82,0,0,1-11.3,8.34,37.89,37.89,0,0,1-15,2.82,48.66,48.66,0,0,1-7.74-.63,54.92,54.92,0,0,1-8.07-2c.05-.83.12-1.67.21-2.5s.18-1.67.3-2.5a3.56,3.56,0,0,1,.63-1.43,2,2,0,0,1,1.66-.62,6.59,6.59,0,0,1,1.83.31c.71.21,1.54.43,2.51.67s2.09.46,3.4.67a28.54,28.54,0,0,0,4.5.31,30.23,30.23,0,0,0,11.65-2.14,22.6,22.6,0,0,0,8.84-6.56A30.21,30.21,0,0,0,43,103.9,58.11,58.11,0,0,0,45,88.06V3.72h8.67Z" transform="translate(-1.95 -2.29)"/>
  <path class="cls-1" d="M215.21,66.82A80,80,0,0,1,211,93.37a59.23,59.23,0,0,1-11.73,20.35,51.74,51.74,0,0,1-18.14,13,61.39,61.39,0,0,1-46.63,0,51.87,51.87,0,0,1-18.1-13,59.23,59.23,0,0,1-11.73-20.35,80,80,0,0,1-4.17-26.55,79.66,79.66,0,0,1,4.17-26.46A59.13,59.13,0,0,1,116.44,20a52.38,52.38,0,0,1,18.1-13.08,57.24,57.24,0,0,1,23.29-4.64,57.91,57.91,0,0,1,23.34,4.6A51.47,51.47,0,0,1,199.31,20,59.74,59.74,0,0,1,211,40.36,79.66,79.66,0,0,1,215.21,66.82Zm-9,0a75.14,75.14,0,0,0-3.49-23.74,51.34,51.34,0,0,0-9.86-17.85A42.56,42.56,0,0,0,177.55,14a51.82,51.82,0,0,0-39.35,0,42.87,42.87,0,0,0-15.34,11.2,51.49,51.49,0,0,0-10,17.85,74.54,74.54,0,0,0-3.53,23.74,74.4,74.4,0,0,0,3.53,23.78,51.48,51.48,0,0,0,10,17.81,42.41,42.41,0,0,0,15.34,11.16,52.45,52.45,0,0,0,39.35,0,42.1,42.1,0,0,0,15.3-11.16,51.33,51.33,0,0,0,9.86-17.81A75,75,0,0,0,206.2,66.82Z" transform="translate(-1.95 -2.29)"/>
  <path class="cls-1" d="M335.57,122.42,335.4,130H263.32V3.72H335.4v7.59H272.07V62.36h52.7v7.4h-52.7v52.66Z" transform="translate(-1.95 -2.29)"/>
  <path class="cls-1" d="M419.46,78v52h-8.67V78s7.17-12.65,7.9-14L453.12,6a4,4,0,0,1,1.23-1.61,3.22,3.22,0,0,1,2-.62H464Z" transform="translate(-1.95 -2.29)"/>
  <path class="cls-1" d="M569.57,122.24V130H503.86V3.72h8.76V122.24Z" transform="translate(-1.95 -2.29)"/>
  <path class="cls-1" d="M701.74,130H695a2.84,2.84,0,0,1-2-.67,4.46,4.46,0,0,1-1.19-1.74L677.77,90.92H618.7L604.59,127.6a3.88,3.88,0,0,1-1.19,1.69,3.06,3.06,0,0,1-2,.72h-6.63L643.94,3.72h8.59Zm-26.6-45.88L650.66,20.32a64.71,64.71,0,0,1-2.47-7.5c-.34,1.43-.71,2.78-1.1,4.06s-.83,2.46-1.28,3.53L621.33,84.13Z" transform="translate(-1.95 -2.29)"/>
  <path class="cls-1" d="M834.93,3.72V130h-4.08a3.8,3.8,0,0,1-1.82-.4,4.37,4.37,0,0,1-1.4-1.39L749.51,18.62c.17,1.79.25,3.48.25,5.09V130h-7.65V3.72h4.34a4.28,4.28,0,0,1,1.83.31,4.29,4.29,0,0,1,1.4,1.39l78,109.33c-.17-1.79-.26-3.48-.26-5.09V3.72Z" transform="translate(-1.95 -2.29)"/>
  <path class="cls-1" d="M986.91,72.71V117.6a71.65,71.65,0,0,1-19.21,10.27,69.18,69.18,0,0,1-23,3.57,68,68,0,0,1-25.67-4.6,54.75,54.75,0,0,1-19.42-13,57,57,0,0,1-12.32-20.39,78.12,78.12,0,0,1-4.3-26.6,79.42,79.42,0,0,1,4.21-26.55,57.35,57.35,0,0,1,12.07-20.35,53.44,53.44,0,0,1,19-13,65,65,0,0,1,25.07-4.6,77.11,77.11,0,0,1,12.71,1,57.14,57.14,0,0,1,10.84,2.9,50.29,50.29,0,0,1,9.35,4.73,65.23,65.23,0,0,1,8.33,6.47l-2.38,3.93q-1.2,2.14-3.57,1a16.86,16.86,0,0,1-3.66-2.5,37.73,37.73,0,0,0-6.54-4.1,54.18,54.18,0,0,0-10.33-3.84,57.31,57.31,0,0,0-15-1.69,55.09,55.09,0,0,0-21.21,3.92,44.72,44.72,0,0,0-16.15,11.25A50.21,50.21,0,0,0,895.5,43.17a72.54,72.54,0,0,0-3.62,23.65,74,74,0,0,0,3.62,23.92,49.72,49.72,0,0,0,10.45,18,45.2,45.2,0,0,0,16.62,11.33,58.53,58.53,0,0,0,22,3.93,63.64,63.64,0,0,0,9.91-.72,59.64,59.64,0,0,0,8.67-2,56.29,56.29,0,0,0,8-3.22q3.86-1.92,7.86-4.33v-34H956a2.19,2.19,0,0,1-1.57-.62,2,2,0,0,1-.64-1.43v-5Z" transform="translate(-1.95 -2.29)"/>
  <path class="cls-1" d="M1101.92,122.24V130h-65.71V3.72H1045V122.24Z" transform="translate(-1.95 -2.29)"/>
  <path class="cls-1" d="M1214.88,122.42l-.17,7.59h-72.08V3.72h72.08v7.59h-63.33V62.36h52.7v7.4h-52.7v52.66Z" transform="translate(-1.95 -2.29)"/>
  <path class="cls-1" d="M1298.77,78v52h-8.67V78L1245.56,3.72h7.65a3.13,3.13,0,0,1,2,.58A4.43,4.43,0,0,1,1256.44,6l34.43,58C1291.6,65.33,1298.77,78,1298.77,78Z" transform="translate(-1.95 -2.29)"/>
  <path class="cls-1" d="M1291.19,65.12" transform="translate(-1.95 -2.29)"/>
</svg>
